<svg xmlns="http://www.w3.org/2000/svg" viewBox="0 0 1200 780">
<defs>
  <linearGradient id="bg" x1="0" y1="0" x2="1" y2="1">
    <stop offset="0%" stop-color="#081018"/>
    <stop offset="100%" stop-color="#101d2a"/>
  </linearGradient>
  <style>
    .title { font: 700 34px Helvetica, Arial, sans-serif; fill: #e6edf3; }
    .subtitle { font: 500 18px Helvetica, Arial, sans-serif; fill: #9fb3c8; }
    .panel { fill: #122131; stroke: #5e7fa3; stroke-width: 2; rx: 18; }
    .label { font: 600 18px Helvetica, Arial, sans-serif; fill: #dce7f3; }
    .small { font: 500 15px Helvetica, Arial, sans-serif; fill: #9fb3c8; }
    .axis { stroke: #39516a; stroke-width: 2; }
    .grid { stroke: #223445; stroke-width: 1; opacity: 0.8; }
    .sample { stroke: #94a3b8; stroke-width: 1.5; stroke-dasharray: 5 5; opacity: 0.7; }
  </style>
</defs>
<rect width="1200" height="780" fill="url(#bg)"/>
<text x="60.0" y="60.0" class="title" text-anchor="start">SRRC rolloff and matched-filter response</text>
<text x="60.0" y="92.0" class="subtitle" text-anchor="start">Lower beta buys tighter spectrum. Higher beta buys a shorter, more timing-friendly pulse. Matched filtering makes the zero-ISI sampling view visible.</text>
<rect x="50" y="130" width="1100" height="280" class="panel"/>
<rect x="50" y="460" width="1100" height="280" class="panel"/>
<text x="80.0" y="160.0" class="label" text-anchor="start">1. Time-domain SRRC pulses for three rolloff values</text>
<text x="80.0" y="490.0" class="label" text-anchor="start">2. Tx pulse convolved with the matched Rx pulse (beta = 0.35)</text>
<line x1="80.0" y1="170.0" x2="80.0" y2="390.0" class="grid"/>
<line x1="80.0" y1="500.0" x2="80.0" y2="720.0" class="grid"/>
<line x1="145.0" y1="500.0" x2="145.0" y2="720.0" class="sample"/>
<text x="80.0" y="414.0" class="small" text-anchor="middle">-4T</text>
<text x="80.0" y="744.0" class="small" text-anchor="middle">-4T</text>
<line x1="210.0" y1="170.0" x2="210.0" y2="390.0" class="grid"/>
<line x1="210.0" y1="500.0" x2="210.0" y2="720.0" class="grid"/>
<line x1="275.0" y1="500.0" x2="275.0" y2="720.0" class="sample"/>
<text x="210.0" y="414.0" class="small" text-anchor="middle">-3T</text>
<text x="210.0" y="744.0" class="small" text-anchor="middle">-3T</text>
<line x1="340.0" y1="170.0" x2="340.0" y2="390.0" class="grid"/>
<line x1="340.0" y1="500.0" x2="340.0" y2="720.0" class="grid"/>
<line x1="405.0" y1="500.0" x2="405.0" y2="720.0" class="sample"/>
<text x="340.0" y="414.0" class="small" text-anchor="middle">-2T</text>
<text x="340.0" y="744.0" class="small" text-anchor="middle">-2T</text>
<line x1="470.0" y1="170.0" x2="470.0" y2="390.0" class="grid"/>
<line x1="470.0" y1="500.0" x2="470.0" y2="720.0" class="grid"/>
<line x1="535.0" y1="500.0" x2="535.0" y2="720.0" class="sample"/>
<text x="470.0" y="414.0" class="small" text-anchor="middle">-1T</text>
<text x="470.0" y="744.0" class="small" text-anchor="middle">-1T</text>
<line x1="600.0" y1="170.0" x2="600.0" y2="390.0" class="grid"/>
<line x1="600.0" y1="500.0" x2="600.0" y2="720.0" class="grid"/>
<line x1="665.0" y1="500.0" x2="665.0" y2="720.0" class="sample"/>
<text x="600.0" y="414.0" class="small" text-anchor="middle">+0T</text>
<text x="600.0" y="744.0" class="small" text-anchor="middle">+0T</text>
<line x1="730.0" y1="170.0" x2="730.0" y2="390.0" class="grid"/>
<line x1="730.0" y1="500.0" x2="730.0" y2="720.0" class="grid"/>
<line x1="795.0" y1="500.0" x2="795.0" y2="720.0" class="sample"/>
<text x="730.0" y="414.0" class="small" text-anchor="middle">+1T</text>
<text x="730.0" y="744.0" class="small" text-anchor="middle">+1T</text>
<line x1="860.0" y1="170.0" x2="860.0" y2="390.0" class="grid"/>
<line x1="860.0" y1="500.0" x2="860.0" y2="720.0" class="grid"/>
<line x1="925.0" y1="500.0" x2="925.0" y2="720.0" class="sample"/>
<text x="860.0" y="414.0" class="small" text-anchor="middle">+2T</text>
<text x="860.0" y="744.0" class="small" text-anchor="middle">+2T</text>
<line x1="990.0" y1="170.0" x2="990.0" y2="390.0" class="grid"/>
<line x1="990.0" y1="500.0" x2="990.0" y2="720.0" class="grid"/>
<line x1="1055.0" y1="500.0" x2="1055.0" y2="720.0" class="sample"/>
<text x="990.0" y="414.0" class="small" text-anchor="middle">+3T</text>
<text x="990.0" y="744.0" class="small" text-anchor="middle">+3T</text>
<line x1="1120.0" y1="170.0" x2="1120.0" y2="390.0" class="grid"/>
<line x1="1120.0" y1="500.0" x2="1120.0" y2="720.0" class="grid"/>
<text x="1120.0" y="414.0" class="small" text-anchor="middle">+4T</text>
<text x="1120.0" y="744.0" class="small" text-anchor="middle">+4T</text>
<line x1="80.0" y1="357.5" x2="1120.0" y2="357.5" class="axis"/>
<line x1="80.0" y1="390.0" x2="1120.0" y2="390.0" class="axis"/>
<line x1="80.0" y1="170.0" x2="80.0" y2="390.0" class="axis"/>
<line x1="80.0" y1="720.0" x2="1120.0" y2="720.0" class="axis"/>
<line x1="80.0" y1="500.0" x2="80.0" y2="720.0" class="axis"/>
<line x1="80.0" y1="687.7" x2="1120.0" y2="687.7" class="axis"/>
<polyline points="80.0,353.3 82.0,353.5 84.1,353.6 86.1,353.8 88.1,354.0 90.2,354.2 92.2,354.5 94.2,354.7 96.2,355.0 98.3,355.3 100.3,355.6 102.3,355.9 104.4,356.2 106.4,356.5 108.4,356.8 110.5,357.2 112.5,357.5 114.5,357.9 116.6,358.2 118.6,358.6 120.6,359.0 122.7,359.3 124.7,359.7 126.7,360.1 128.8,360.5 130.8,360.9 132.8,361.2 134.8,361.6 136.9,362.0 138.9,362.3 140.9,362.7 143.0,363.0 145.0,363.4 147.0,363.7 149.1,364.0 151.1,364.3 153.1,364.6 155.2,364.8 157.2,365.1 159.2,365.3 161.2,365.5 163.3,365.7 165.3,365.9 167.3,366.1 169.4,366.2 171.4,366.3 173.4,366.4 175.5,366.4 177.5,366.5 179.5,366.5 181.6,366.5 183.6,366.4 185.6,366.3 187.7,366.2 189.7,366.1 191.7,366.0 193.8,365.8 195.8,365.6 197.8,365.3 199.8,365.1 201.9,364.8 203.9,364.4 205.9,364.1 208.0,363.7 210.0,363.3 212.0,362.9 214.1,362.4 216.1,362.0 218.1,361.5 220.2,361.0 222.2,360.4 224.2,359.9 226.2,359.3 228.3,358.7 230.3,358.1 232.3,357.5 234.4,356.9 236.4,356.2 238.4,355.6 240.5,354.9 242.5,354.2 244.5,353.6 246.6,352.9 248.6,352.2 250.6,351.6 252.7,350.9 254.7,350.2 256.7,349.6 258.8,349.0 260.8,348.3 262.8,347.7 264.8,347.1 266.9,346.5 268.9,346.0 270.9,345.4 273.0,344.9 275.0,344.4 277.0,344.0 279.1,343.6 281.1,343.2 283.1,342.8 285.2,342.5 287.2,342.2 289.2,341.9 291.2,341.7 293.3,341.5 295.3,341.4 297.3,341.3 299.4,341.2 301.4,341.2 303.4,341.3 305.5,341.4 307.5,341.5 309.5,341.7 311.6,341.9 313.6,342.2 315.6,342.6 317.7,342.9 319.7,343.4 321.7,343.9 323.8,344.4 325.8,345.0 327.8,345.6 329.8,346.3 331.9,347.0 333.9,347.8 335.9,348.6 338.0,349.4 340.0,350.3 342.0,351.3 344.1,352.2 346.1,353.3 348.1,354.3 350.2,355.4 352.2,356.5 354.2,357.6 356.2,358.8 358.3,360.0 360.3,361.2 362.3,362.4 364.4,363.6 366.4,364.9 368.4,366.1 370.5,367.4 372.5,368.6 374.5,369.9 376.6,371.1 378.6,372.3 380.6,373.6 382.7,374.8 384.7,376.0 386.7,377.1 388.8,378.3 390.8,379.4 392.8,380.5 394.8,381.5 396.9,382.5 398.9,383.4 400.9,384.3 403.0,385.2 405.0,386.0 407.0,386.7 409.1,387.3 411.1,387.9 413.1,388.5 415.2,388.9 417.2,389.3 419.2,389.6 421.2,389.8 423.3,390.0 425.3,390.0 427.3,390.0 429.4,389.8 431.4,389.6 433.4,389.3 435.5,388.8 437.5,388.3 439.5,387.7 441.6,386.9 443.6,386.1 445.6,385.2 447.7,384.1 449.7,383.0 451.7,381.7 453.8,380.3 455.8,378.9 457.8,377.3 459.8,375.6 461.9,373.8 463.9,371.9 465.9,369.9 468.0,367.8 470.0,365.6 472.0,363.3 474.1,360.9 476.1,358.4 478.1,355.8 480.2,353.1 482.2,350.4 484.2,347.5 486.2,344.6 488.3,341.6 490.3,338.5 492.3,335.3 494.4,332.1 496.4,328.8 498.4,325.5 500.5,322.1 502.5,318.7 504.5,315.2 506.6,311.7 508.6,308.1 510.6,304.5 512.7,300.9 514.7,297.2 516.7,293.6 518.8,289.9 520.8,286.3 522.8,282.6 524.8,278.9 526.9,275.3 528.9,271.7 530.9,268.1 533.0,264.5 535.0,261.0 537.0,257.5 539.1,254.0 541.1,250.6 543.1,247.3 545.2,244.0 547.2,240.8 549.2,237.6 551.2,234.6 553.3,231.6 555.3,228.7 557.3,225.9 559.4,223.2 561.4,220.6 563.4,218.1 565.5,215.7 567.5,213.5 569.5,211.3 571.6,209.3 573.6,207.4 575.6,205.6 577.7,204.0 579.7,202.5 581.7,201.1 583.8,199.8 585.8,198.7 587.8,197.8 589.8,197.0 591.9,196.3 593.9,195.8 595.9,195.4 598.0,195.2 600.0,195.1 602.0,195.2 604.1,195.4 606.1,195.8 608.1,196.3 610.2,197.0 612.2,197.8 614.2,198.7 616.2,199.8 618.3,201.1 620.3,202.5 622.3,204.0 624.4,205.6 626.4,207.4 628.4,209.3 630.5,211.3 632.5,213.5 634.5,215.7 636.6,218.1 638.6,220.6 640.6,223.2 642.7,225.9 644.7,228.7 646.7,231.6 648.8,234.6 650.8,237.6 652.8,240.8 654.8,244.0 656.9,247.3 658.9,250.6 660.9,254.0 663.0,257.5 665.0,261.0 667.0,264.5 669.1,268.1 671.1,271.7 673.1,275.3 675.2,278.9 677.2,282.6 679.2,286.3 681.2,289.9 683.3,293.6 685.3,297.2 687.3,300.9 689.4,304.5 691.4,308.1 693.4,311.7 695.5,315.2 697.5,318.7 699.5,322.1 701.6,325.5 703.6,328.8 705.6,332.1 707.7,335.3 709.7,338.5 711.7,341.6 713.8,344.6 715.8,347.5 717.8,350.4 719.8,353.1 721.9,355.8 723.9,358.4 725.9,360.9 728.0,363.3 730.0,365.6 732.0,367.8 734.1,369.9 736.1,371.9 738.1,373.8 740.2,375.6 742.2,377.3 744.2,378.9 746.2,380.3 748.3,381.7 750.3,383.0 752.3,384.1 754.4,385.2 756.4,386.1 758.4,386.9 760.5,387.7 762.5,388.3 764.5,388.8 766.6,389.3 768.6,389.6 770.6,389.8 772.7,390.0 774.7,390.0 776.7,390.0 778.8,389.8 780.8,389.6 782.8,389.3 784.8,388.9 786.9,388.5 788.9,387.9 790.9,387.3 793.0,386.7 795.0,386.0 797.0,385.2 799.1,384.3 801.1,383.4 803.1,382.5 805.2,381.5 807.2,380.5 809.2,379.4 811.2,378.3 813.3,377.1 815.3,376.0 817.3,374.8 819.4,373.6 821.4,372.3 823.4,371.1 825.5,369.9 827.5,368.6 829.5,367.4 831.6,366.1 833.6,364.9 835.6,363.6 837.7,362.4 839.7,361.2 841.7,360.0 843.8,358.8 845.8,357.6 847.8,356.5 849.8,355.4 851.9,354.3 853.9,353.3 855.9,352.2 858.0,351.3 860.0,350.3 862.0,349.4 864.1,348.6 866.1,347.8 868.1,347.0 870.2,346.3 872.2,345.6 874.2,345.0 876.2,344.4 878.3,343.9 880.3,343.4 882.3,342.9 884.4,342.6 886.4,342.2 888.4,341.9 890.5,341.7 892.5,341.5 894.5,341.4 896.6,341.3 898.6,341.2 900.6,341.2 902.7,341.3 904.7,341.4 906.7,341.5 908.8,341.7 910.8,341.9 912.8,342.2 914.8,342.5 916.9,342.8 918.9,343.2 920.9,343.6 923.0,344.0 925.0,344.4 927.0,344.9 929.1,345.4 931.1,346.0 933.1,346.5 935.2,347.1 937.2,347.7 939.2,348.3 941.2,349.0 943.3,349.6 945.3,350.2 947.3,350.9 949.4,351.6 951.4,352.2 953.4,352.9 955.5,353.6 957.5,354.2 959.5,354.9 961.6,355.6 963.6,356.2 965.6,356.9 967.7,357.5 969.7,358.1 971.7,358.7 973.8,359.3 975.8,359.9 977.8,360.4 979.8,361.0 981.9,361.5 983.9,362.0 985.9,362.4 988.0,362.9 990.0,363.3 992.0,363.7 994.1,364.1 996.1,364.4 998.1,364.8 1000.2,365.1 1002.2,365.3 1004.2,365.6 1006.2,365.8 1008.3,366.0 1010.3,366.1 1012.3,366.2 1014.4,366.3 1016.4,366.4 1018.4,366.5 1020.5,366.5 1022.5,366.5 1024.5,366.4 1026.6,366.4 1028.6,366.3 1030.6,366.2 1032.7,366.1 1034.7,365.9 1036.7,365.7 1038.8,365.5 1040.8,365.3 1042.8,365.1 1044.8,364.8 1046.9,364.6 1048.9,364.3 1050.9,364.0 1053.0,363.7 1055.0,363.4 1057.0,363.0 1059.1,362.7 1061.1,362.3 1063.1,362.0 1065.2,361.6 1067.2,361.2 1069.2,360.9 1071.2,360.5 1073.3,360.1 1075.3,359.7 1077.3,359.3 1079.4,359.0 1081.4,358.6 1083.4,358.2 1085.5,357.9 1087.5,357.5 1089.5,357.2 1091.6,356.8 1093.6,356.5 1095.6,356.2 1097.7,355.9 1099.7,355.6 1101.7,355.3 1103.8,355.0 1105.8,354.7 1107.8,354.5 1109.8,354.2 1111.9,354.0 1113.9,353.8 1115.9,353.6 1118.0,353.5 1120.0,353.3" fill="none" stroke="#60a5fa" stroke-width="3.5" stroke-linejoin="round" stroke-linecap="round"/>
<polyline points="80.0,359.1 82.0,359.1 84.1,359.1 86.1,359.0 88.1,359.0 90.2,359.0 92.2,359.0 94.2,358.9 96.2,358.8 98.3,358.8 100.3,358.7 102.3,358.6 104.4,358.5 106.4,358.4 108.4,358.3 110.5,358.2 112.5,358.1 114.5,358.0 116.6,357.8 118.6,357.7 120.6,357.6 122.7,357.4 124.7,357.3 126.7,357.1 128.8,357.0 130.8,356.8 132.8,356.7 134.8,356.6 136.9,356.4 138.9,356.3 140.9,356.1 143.0,356.0 145.0,355.9 147.0,355.7 149.1,355.6 151.1,355.5 153.1,355.4 155.2,355.3 157.2,355.2 159.2,355.1 161.2,355.1 163.3,355.0 165.3,355.0 167.3,355.0 169.4,354.9 171.4,354.9 173.4,354.9 175.5,354.9 177.5,355.0 179.5,355.0 181.6,355.1 183.6,355.1 185.6,355.2 187.7,355.3 189.7,355.4 191.7,355.5 193.8,355.7 195.8,355.8 197.8,356.0 199.8,356.1 201.9,356.3 203.9,356.5 205.9,356.7 208.0,356.8 210.0,357.0 212.0,357.2 214.1,357.4 216.1,357.7 218.1,357.9 220.2,358.1 222.2,358.3 224.2,358.5 226.2,358.7 228.3,358.9 230.3,359.1 232.3,359.3 234.4,359.4 236.4,359.6 238.4,359.8 240.5,359.9 242.5,360.0 244.5,360.2 246.6,360.3 248.6,360.4 250.6,360.4 252.7,360.5 254.7,360.5 256.7,360.5 258.8,360.5 260.8,360.5 262.8,360.5 264.8,360.4 266.9,360.3 268.9,360.2 270.9,360.1 273.0,360.0 275.0,359.8 277.0,359.6 279.1,359.4 281.1,359.2 283.1,359.0 285.2,358.7 287.2,358.5 289.2,358.2 291.2,357.9 293.3,357.6 295.3,357.2 297.3,356.9 299.4,356.5 301.4,356.2 303.4,355.8 305.5,355.5 307.5,355.1 309.5,354.8 311.6,354.4 313.6,354.1 315.6,353.7 317.7,353.4 319.7,353.1 321.7,352.8 323.8,352.5 325.8,352.2 327.8,351.9 329.8,351.7 331.9,351.5 333.9,351.3 335.9,351.2 338.0,351.1 340.0,351.0 342.0,350.9 344.1,350.9 346.1,350.9 348.1,351.0 350.2,351.1 352.2,351.2 354.2,351.4 356.2,351.7 358.3,351.9 360.3,352.3 362.3,352.6 364.4,353.0 366.4,353.5 368.4,354.0 370.5,354.5 372.5,355.1 374.5,355.8 376.6,356.4 378.6,357.2 380.6,357.9 382.7,358.7 384.7,359.5 386.7,360.4 388.8,361.3 390.8,362.2 392.8,363.1 394.8,364.1 396.9,365.0 398.9,366.0 400.9,367.0 403.0,368.0 405.0,369.1 407.0,370.1 409.1,371.1 411.1,372.1 413.1,373.0 415.2,374.0 417.2,374.9 419.2,375.8 421.2,376.7 423.3,377.5 425.3,378.3 427.3,379.0 429.4,379.6 431.4,380.3 433.4,380.8 435.5,381.3 437.5,381.6 439.5,382.0 441.6,382.2 443.6,382.3 445.6,382.3 447.7,382.3 449.7,382.1 451.7,381.8 453.8,381.4 455.8,380.9 457.8,380.3 459.8,379.5 461.9,378.6 463.9,377.6 465.9,376.5 468.0,375.2 470.0,373.8 472.0,372.3 474.1,370.6 476.1,368.8 478.1,366.9 480.2,364.8 482.2,362.6 484.2,360.2 486.2,357.7 488.3,355.1 490.3,352.4 492.3,349.5 494.4,346.5 496.4,343.4 498.4,340.2 500.5,336.8 502.5,333.4 504.5,329.8 506.6,326.2 508.6,322.4 510.6,318.6 512.7,314.7 514.7,310.7 516.7,306.7 518.8,302.5 520.8,298.4 522.8,294.2 524.8,289.9 526.9,285.7 528.9,281.4 530.9,277.1 533.0,272.8 535.0,268.5 537.0,264.2 539.1,259.9 541.1,255.7 543.1,251.5 545.2,247.4 547.2,243.3 549.2,239.3 551.2,235.3 553.3,231.5 555.3,227.7 557.3,224.1 559.4,220.5 561.4,217.1 563.4,213.8 565.5,210.6 567.5,207.6 569.5,204.7 571.6,201.9 573.6,199.4 575.6,197.0 577.7,194.7 579.7,192.7 581.7,190.8 583.8,189.1 585.8,187.6 587.8,186.3 589.8,185.2 591.9,184.2 593.9,183.5 595.9,183.0 598.0,182.7 600.0,182.6 602.0,182.7 604.1,183.0 606.1,183.5 608.1,184.2 610.2,185.2 612.2,186.3 614.2,187.6 616.2,189.1 618.3,190.8 620.3,192.7 622.3,194.7 624.4,197.0 626.4,199.4 628.4,201.9 630.5,204.7 632.5,207.6 634.5,210.6 636.6,213.8 638.6,217.1 640.6,220.5 642.7,224.1 644.7,227.7 646.7,231.5 648.8,235.3 650.8,239.3 652.8,243.3 654.8,247.4 656.9,251.5 658.9,255.7 660.9,259.9 663.0,264.2 665.0,268.5 667.0,272.8 669.1,277.1 671.1,281.4 673.1,285.7 675.2,289.9 677.2,294.2 679.2,298.4 681.2,302.5 683.3,306.7 685.3,310.7 687.3,314.7 689.4,318.6 691.4,322.4 693.4,326.2 695.5,329.8 697.5,333.4 699.5,336.8 701.6,340.2 703.6,343.4 705.6,346.5 707.7,349.5 709.7,352.4 711.7,355.1 713.8,357.7 715.8,360.2 717.8,362.6 719.8,364.8 721.9,366.9 723.9,368.8 725.9,370.6 728.0,372.3 730.0,373.8 732.0,375.2 734.1,376.5 736.1,377.6 738.1,378.6 740.2,379.5 742.2,380.3 744.2,380.9 746.2,381.4 748.3,381.8 750.3,382.1 752.3,382.3 754.4,382.3 756.4,382.3 758.4,382.2 760.5,382.0 762.5,381.6 764.5,381.3 766.6,380.8 768.6,380.3 770.6,379.6 772.7,379.0 774.7,378.3 776.7,377.5 778.8,376.7 780.8,375.8 782.8,374.9 784.8,374.0 786.9,373.0 788.9,372.1 790.9,371.1 793.0,370.1 795.0,369.1 797.0,368.0 799.1,367.0 801.1,366.0 803.1,365.0 805.2,364.1 807.2,363.1 809.2,362.2 811.2,361.3 813.3,360.4 815.3,359.5 817.3,358.7 819.4,357.9 821.4,357.2 823.4,356.4 825.5,355.8 827.5,355.1 829.5,354.5 831.6,354.0 833.6,353.5 835.6,353.0 837.7,352.6 839.7,352.3 841.7,351.9 843.8,351.7 845.8,351.4 847.8,351.2 849.8,351.1 851.9,351.0 853.9,350.9 855.9,350.9 858.0,350.9 860.0,351.0 862.0,351.1 864.1,351.2 866.1,351.3 868.1,351.5 870.2,351.7 872.2,351.9 874.2,352.2 876.2,352.5 878.3,352.8 880.3,353.1 882.3,353.4 884.4,353.7 886.4,354.1 888.4,354.4 890.5,354.8 892.5,355.1 894.5,355.5 896.6,355.8 898.6,356.2 900.6,356.5 902.7,356.9 904.7,357.2 906.7,357.6 908.8,357.9 910.8,358.2 912.8,358.5 914.8,358.7 916.9,359.0 918.9,359.2 920.9,359.4 923.0,359.6 925.0,359.8 927.0,360.0 929.1,360.1 931.1,360.2 933.1,360.3 935.2,360.4 937.2,360.5 939.2,360.5 941.2,360.5 943.3,360.5 945.3,360.5 947.3,360.5 949.4,360.4 951.4,360.4 953.4,360.3 955.5,360.2 957.5,360.0 959.5,359.9 961.6,359.8 963.6,359.6 965.6,359.4 967.7,359.3 969.7,359.1 971.7,358.9 973.8,358.7 975.8,358.5 977.8,358.3 979.8,358.1 981.9,357.9 983.9,357.7 985.9,357.4 988.0,357.2 990.0,357.0 992.0,356.8 994.1,356.7 996.1,356.5 998.1,356.3 1000.2,356.1 1002.2,356.0 1004.2,355.8 1006.2,355.7 1008.3,355.5 1010.3,355.4 1012.3,355.3 1014.4,355.2 1016.4,355.1 1018.4,355.1 1020.5,355.0 1022.5,355.0 1024.5,354.9 1026.6,354.9 1028.6,354.9 1030.6,354.9 1032.7,355.0 1034.7,355.0 1036.7,355.0 1038.8,355.1 1040.8,355.1 1042.8,355.2 1044.8,355.3 1046.9,355.4 1048.9,355.5 1050.9,355.6 1053.0,355.7 1055.0,355.9 1057.0,356.0 1059.1,356.1 1061.1,356.3 1063.1,356.4 1065.2,356.6 1067.2,356.7 1069.2,356.8 1071.2,357.0 1073.3,357.1 1075.3,357.3 1077.3,357.4 1079.4,357.6 1081.4,357.7 1083.4,357.8 1085.5,358.0 1087.5,358.1 1089.5,358.2 1091.6,358.3 1093.6,358.4 1095.6,358.5 1097.7,358.6 1099.7,358.7 1101.7,358.8 1103.8,358.8 1105.8,358.9 1107.8,359.0 1109.8,359.0 1111.9,359.0 1113.9,359.0 1115.9,359.1 1118.0,359.1 1120.0,359.1" fill="none" stroke="#f97316" stroke-width="3.5" stroke-linejoin="round" stroke-linecap="round"/>
<polyline points="80.0,356.8 82.0,356.7 84.1,356.7 86.1,356.6 88.1,356.6 90.2,356.6 92.2,356.6 94.2,356.5 96.2,356.5 98.3,356.5 100.3,356.6 102.3,356.6 104.4,356.6 106.4,356.6 108.4,356.7 110.5,356.7 112.5,356.8 114.5,356.9 116.6,356.9 118.6,357.0 120.6,357.1 122.7,357.2 124.7,357.3 126.7,357.4 128.8,357.5 130.8,357.6 132.8,357.7 134.8,357.8 136.9,357.9 138.9,358.0 140.9,358.1 143.0,358.2 145.0,358.3 147.0,358.4 149.1,358.5 151.1,358.6 153.1,358.7 155.2,358.8 157.2,358.8 159.2,358.9 161.2,358.9 163.3,359.0 165.3,359.0 167.3,359.0 169.4,359.0 171.4,359.0 173.4,359.0 175.5,359.0 177.5,358.9 179.5,358.9 181.6,358.8 183.6,358.8 185.6,358.7 187.7,358.6 189.7,358.5 191.7,358.4 193.8,358.3 195.8,358.1 197.8,358.0 199.8,357.9 201.9,357.7 203.9,357.6 205.9,357.4 208.0,357.3 210.0,357.1 212.0,357.0 214.1,356.9 216.1,356.7 218.1,356.6 220.2,356.5 222.2,356.3 224.2,356.2 226.2,356.1 228.3,356.0 230.3,355.9 232.3,355.9 234.4,355.8 236.4,355.8 238.4,355.7 240.5,355.7 242.5,355.7 244.5,355.7 246.6,355.8 248.6,355.8 250.6,355.9 252.7,356.0 254.7,356.1 256.7,356.2 258.8,356.3 260.8,356.5 262.8,356.6 264.8,356.8 266.9,357.0 268.9,357.2 270.9,357.4 273.0,357.6 275.0,357.8 277.0,358.0 279.1,358.3 281.1,358.5 283.1,358.8 285.2,359.0 287.2,359.2 289.2,359.4 291.2,359.7 293.3,359.9 295.3,360.1 297.3,360.3 299.4,360.4 301.4,360.6 303.4,360.7 305.5,360.9 307.5,361.0 309.5,361.1 311.6,361.1 313.6,361.2 315.6,361.2 317.7,361.2 319.7,361.1 321.7,361.1 323.8,361.0 325.8,360.8 327.8,360.7 329.8,360.5 331.9,360.3 333.9,360.1 335.9,359.9 338.0,359.6 340.0,359.3 342.0,359.0 344.1,358.7 346.1,358.3 348.1,358.0 350.2,357.6 352.2,357.2 354.2,356.9 356.2,356.5 358.3,356.1 360.3,355.7 362.3,355.4 364.4,355.0 366.4,354.7 368.4,354.3 370.5,354.0 372.5,353.7 374.5,353.5 376.6,353.2 378.6,353.0 380.6,352.9 382.7,352.8 384.7,352.7 386.7,352.6 388.8,352.6 390.8,352.7 392.8,352.8 394.8,353.0 396.9,353.2 398.9,353.4 400.9,353.7 403.0,354.1 405.0,354.5 407.0,355.0 409.1,355.5 411.1,356.1 413.1,356.7 415.2,357.4 417.2,358.1 419.2,358.9 421.2,359.7 423.3,360.5 425.3,361.3 427.3,362.2 429.4,363.1 431.4,364.0 433.4,364.9 435.5,365.8 437.5,366.7 439.5,367.6 441.6,368.5 443.6,369.4 445.6,370.2 447.7,371.0 449.7,371.7 451.7,372.3 453.8,372.9 455.8,373.5 457.8,373.9 459.8,374.2 461.9,374.5 463.9,374.6 465.9,374.7 468.0,374.6 470.0,374.3 472.0,374.0 474.1,373.5 476.1,372.8 478.1,372.0 480.2,371.1 482.2,369.9 484.2,368.6 486.2,367.1 488.3,365.5 490.3,363.6 492.3,361.6 494.4,359.4 496.4,357.0 498.4,354.5 500.5,351.7 502.5,348.8 504.5,345.7 506.6,342.4 508.6,338.9 510.6,335.3 512.7,331.5 514.7,327.6 516.7,323.5 518.8,319.2 520.8,314.9 522.8,310.4 524.8,305.8 526.9,301.0 528.9,296.2 530.9,291.3 533.0,286.4 535.0,281.4 537.0,276.3 539.1,271.2 541.1,266.1 543.1,260.9 545.2,255.8 547.2,250.7 549.2,245.7 551.2,240.7 553.3,235.7 555.3,230.9 557.3,226.1 559.4,221.5 561.4,217.0 563.4,212.6 565.5,208.3 567.5,204.3 569.5,200.4 571.6,196.7 573.6,193.2 575.6,189.9 577.7,186.8 579.7,184.0 581.7,181.4 583.8,179.0 585.8,176.9 587.8,175.1 589.8,173.6 591.9,172.3 593.9,171.3 595.9,170.6 598.0,170.1 600.0,170.0 602.0,170.1 604.1,170.6 606.1,171.3 608.1,172.3 610.2,173.6 612.2,175.1 614.2,176.9 616.2,179.0 618.3,181.4 620.3,184.0 622.3,186.8 624.4,189.9 626.4,193.2 628.4,196.7 630.5,200.4 632.5,204.3 634.5,208.3 636.6,212.6 638.6,217.0 640.6,221.5 642.7,226.1 644.7,230.9 646.7,235.7 648.8,240.7 650.8,245.7 652.8,250.7 654.8,255.8 656.9,260.9 658.9,266.1 660.9,271.2 663.0,276.3 665.0,281.4 667.0,286.4 669.1,291.3 671.1,296.2 673.1,301.0 675.2,305.8 677.2,310.4 679.2,314.9 681.2,319.2 683.3,323.5 685.3,327.6 687.3,331.5 689.4,335.3 691.4,338.9 693.4,342.4 695.5,345.7 697.5,348.8 699.5,351.7 701.6,354.5 703.6,357.0 705.6,359.4 707.7,361.6 709.7,363.6 711.7,365.5 713.8,367.1 715.8,368.6 717.8,369.9 719.8,371.1 721.9,372.0 723.9,372.8 725.9,373.5 728.0,374.0 730.0,374.3 732.0,374.6 734.1,374.7 736.1,374.6 738.1,374.5 740.2,374.2 742.2,373.9 744.2,373.5 746.2,372.9 748.3,372.3 750.3,371.7 752.3,371.0 754.4,370.2 756.4,369.4 758.4,368.5 760.5,367.6 762.5,366.7 764.5,365.8 766.6,364.9 768.6,364.0 770.6,363.1 772.7,362.2 774.7,361.3 776.7,360.5 778.8,359.7 780.8,358.9 782.8,358.1 784.8,357.4 786.9,356.7 788.9,356.1 790.9,355.5 793.0,355.0 795.0,354.5 797.0,354.1 799.1,353.7 801.1,353.4 803.1,353.2 805.2,353.0 807.2,352.8 809.2,352.7 811.2,352.6 813.3,352.6 815.3,352.7 817.3,352.8 819.4,352.9 821.4,353.0 823.4,353.2 825.5,353.5 827.5,353.7 829.5,354.0 831.6,354.3 833.6,354.7 835.6,355.0 837.7,355.4 839.7,355.7 841.7,356.1 843.8,356.5 845.8,356.9 847.8,357.2 849.8,357.6 851.9,358.0 853.9,358.3 855.9,358.7 858.0,359.0 860.0,359.3 862.0,359.6 864.1,359.9 866.1,360.1 868.1,360.3 870.2,360.5 872.2,360.7 874.2,360.8 876.2,361.0 878.3,361.1 880.3,361.1 882.3,361.2 884.4,361.2 886.4,361.2 888.4,361.1 890.5,361.1 892.5,361.0 894.5,360.9 896.6,360.7 898.6,360.6 900.6,360.4 902.7,360.3 904.7,360.1 906.7,359.9 908.8,359.7 910.8,359.4 912.8,359.2 914.8,359.0 916.9,358.8 918.9,358.5 920.9,358.3 923.0,358.0 925.0,357.8 927.0,357.6 929.1,357.4 931.1,357.2 933.1,357.0 935.2,356.8 937.2,356.6 939.2,356.5 941.2,356.3 943.3,356.2 945.3,356.1 947.3,356.0 949.4,355.9 951.4,355.8 953.4,355.8 955.5,355.7 957.5,355.7 959.5,355.7 961.6,355.7 963.6,355.8 965.6,355.8 967.7,355.9 969.7,355.9 971.7,356.0 973.8,356.1 975.8,356.2 977.8,356.3 979.8,356.5 981.9,356.6 983.9,356.7 985.9,356.9 988.0,357.0 990.0,357.1 992.0,357.3 994.1,357.4 996.1,357.6 998.1,357.7 1000.2,357.9 1002.2,358.0 1004.2,358.1 1006.2,358.3 1008.3,358.4 1010.3,358.5 1012.3,358.6 1014.4,358.7 1016.4,358.8 1018.4,358.8 1020.5,358.9 1022.5,358.9 1024.5,359.0 1026.6,359.0 1028.6,359.0 1030.6,359.0 1032.7,359.0 1034.7,359.0 1036.7,359.0 1038.8,358.9 1040.8,358.9 1042.8,358.8 1044.8,358.8 1046.9,358.7 1048.9,358.6 1050.9,358.5 1053.0,358.4 1055.0,358.3 1057.0,358.2 1059.1,358.1 1061.1,358.0 1063.1,357.9 1065.2,357.8 1067.2,357.7 1069.2,357.6 1071.2,357.5 1073.3,357.4 1075.3,357.3 1077.3,357.2 1079.4,357.1 1081.4,357.0 1083.4,356.9 1085.5,356.9 1087.5,356.8 1089.5,356.7 1091.6,356.7 1093.6,356.6 1095.6,356.6 1097.7,356.6 1099.7,356.6 1101.7,356.5 1103.8,356.5 1105.8,356.5 1107.8,356.6 1109.8,356.6 1111.9,356.6 1113.9,356.6 1115.9,356.7 1118.0,356.7 1120.0,356.8" fill="none" stroke="#22c55e" stroke-width="3.5" stroke-linejoin="round" stroke-linecap="round"/>
<circle cx="930.0" cy="185.0" r="6.0" fill="#60a5fa" opacity="1.0"/>
<text x="948.0" y="190.0" class="small" text-anchor="start">beta = 0.2</text>
<circle cx="930.0" cy="213.0" r="6.0" fill="#f97316" opacity="1.0"/>
<text x="948.0" y="218.0" class="small" text-anchor="start">beta = 0.5</text>
<circle cx="930.0" cy="241.0" r="6.0" fill="#22c55e" opacity="1.0"/>
<text x="948.0" y="246.0" class="small" text-anchor="start">beta = 0.8</text>
<text x="80.0" y="438.0" class="small" text-anchor="start">Small beta rings longer in time. Large beta settles faster but spends more bandwidth.</text>
<polyline points="80.0,685.8 82.0,685.8 84.1,685.9 86.1,686.0 88.1,686.1 90.2,686.2 92.2,686.3 94.2,686.4 96.2,686.5 98.3,686.6 100.3,686.7 102.3,686.9 104.4,687.0 106.4,687.1 108.4,687.3 110.5,687.4 112.5,687.6 114.5,687.7 116.6,687.9 118.6,688.1 120.6,688.2 122.7,688.4 124.7,688.5 126.7,688.7 128.8,688.9 130.8,689.0 132.8,689.2 134.8,689.3 136.9,689.5 138.9,689.6 140.9,689.8 143.0,689.9 145.0,690.0 147.0,690.2 149.1,690.3 151.1,690.4 153.1,690.5 155.2,690.6 157.2,690.7 159.2,690.8 161.2,690.8 163.3,690.9 165.3,690.9 167.3,691.0 169.4,691.0 171.4,691.0 173.4,691.0 175.5,690.9 177.5,690.9 179.5,690.9 181.6,690.8 183.6,690.7 185.6,690.6 187.7,690.5 189.7,690.4 191.7,690.2 193.8,690.1 195.8,689.9 197.8,689.7 199.8,689.5 201.9,689.2 203.9,689.0 205.9,688.8 208.0,688.5 210.0,688.2 212.0,687.9 214.1,687.6 216.1,687.3 218.1,686.9 220.2,686.6 222.2,686.2 224.2,685.9 226.2,685.5 228.3,685.1 230.3,684.7 232.3,684.3 234.4,683.9 236.4,683.5 238.4,683.1 240.5,682.7 242.5,682.3 244.5,681.9 246.6,681.5 248.6,681.1 250.6,680.7 252.7,680.3 254.7,680.0 256.7,679.6 258.8,679.2 260.8,678.9 262.8,678.5 264.8,678.2 266.9,677.9 268.9,677.7 270.9,677.4 273.0,677.2 275.0,676.9 277.0,676.7 279.1,676.6 281.1,676.4 283.1,676.3 285.2,676.2 287.2,676.2 289.2,676.2 291.2,676.2 293.3,676.2 295.3,676.3 297.3,676.4 299.4,676.6 301.4,676.8 303.4,677.0 305.5,677.2 307.5,677.5 309.5,677.9 311.6,678.3 313.6,678.7 315.6,679.1 317.7,679.6 319.7,680.2 321.7,680.8 323.8,681.4 325.8,682.0 327.8,682.7 329.8,683.4 331.9,684.2 333.9,685.0 335.9,685.8 338.0,686.7 340.0,687.6 342.0,688.5 344.1,689.4 346.1,690.4 348.1,691.4 350.2,692.4 352.2,693.5 354.2,694.5 356.2,695.6 358.3,696.7 360.3,697.8 362.3,698.9 364.4,700.0 366.4,701.1 368.4,702.2 370.5,703.3 372.5,704.4 374.5,705.5 376.6,706.6 378.6,707.6 380.6,708.7 382.7,709.7 384.7,710.7 386.7,711.6 388.8,712.6 390.8,713.4 392.8,714.3 394.8,715.1 396.9,715.8 398.9,716.5 400.9,717.2 403.0,717.8 405.0,718.3 407.0,718.8 409.1,719.2 411.1,719.5 413.1,719.7 415.2,719.9 417.2,720.0 419.2,720.0 421.2,719.9 423.3,719.8 425.3,719.5 427.3,719.1 429.4,718.7 431.4,718.2 433.4,717.5 435.5,716.8 437.5,715.9 439.5,715.0 441.6,713.9 443.6,712.7 445.6,711.5 447.7,710.1 449.7,708.6 451.7,707.0 453.8,705.3 455.8,703.4 457.8,701.5 459.8,699.5 461.9,697.3 463.9,695.1 465.9,692.7 468.0,690.3 470.0,687.7 472.0,685.0 474.1,682.3 476.1,679.4 478.1,676.4 480.2,673.4 482.2,670.3 484.2,667.0 486.2,663.7 488.3,660.4 490.3,656.9 492.3,653.4 494.4,649.8 496.4,646.1 498.4,642.4 500.5,638.7 502.5,634.8 504.5,631.0 506.6,627.1 508.6,623.2 510.6,619.2 512.7,615.2 514.7,611.2 516.7,607.2 518.8,603.2 520.8,599.2 522.8,595.2 524.8,591.2 526.9,587.2 528.9,583.2 530.9,579.3 533.0,575.4 535.0,571.5 537.0,567.7 539.1,564.0 541.1,560.3 543.1,556.6 545.2,553.0 547.2,549.6 549.2,546.1 551.2,542.8 553.3,539.6 555.3,536.4 557.3,533.4 559.4,530.5 561.4,527.6 563.4,524.9 565.5,522.4 567.5,519.9 569.5,517.6 571.6,515.4 573.6,513.3 575.6,511.4 577.7,509.6 579.7,507.9 581.7,506.5 583.8,505.1 585.8,503.9 587.8,502.9 589.8,502.0 591.9,501.3 593.9,500.7 595.9,500.3 598.0,500.1 600.0,500.0 602.0,500.1 604.1,500.3 606.1,500.7 608.1,501.3 610.2,502.0 612.2,502.9 614.2,503.9 616.2,505.1 618.3,506.5 620.3,507.9 622.3,509.6 624.4,511.4 626.4,513.3 628.4,515.4 630.5,517.6 632.5,519.9 634.5,522.4 636.6,524.9 638.6,527.6 640.6,530.5 642.7,533.4 644.7,536.4 646.7,539.6 648.8,542.8 650.8,546.1 652.8,549.6 654.8,553.0 656.9,556.6 658.9,560.3 660.9,564.0 663.0,567.7 665.0,571.5 667.0,575.4 669.1,579.3 671.1,583.2 673.1,587.2 675.2,591.2 677.2,595.2 679.2,599.2 681.2,603.2 683.3,607.2 685.3,611.2 687.3,615.2 689.4,619.2 691.4,623.2 693.4,627.1 695.5,631.0 697.5,634.8 699.5,638.7 701.6,642.4 703.6,646.1 705.6,649.8 707.7,653.4 709.7,656.9 711.7,660.4 713.8,663.7 715.8,667.0 717.8,670.3 719.8,673.4 721.9,676.4 723.9,679.4 725.9,682.3 728.0,685.0 730.0,687.7 732.0,690.3 734.1,692.7 736.1,695.1 738.1,697.3 740.2,699.5 742.2,701.5 744.2,703.4 746.2,705.3 748.3,707.0 750.3,708.6 752.3,710.1 754.4,711.5 756.4,712.7 758.4,713.9 760.5,715.0 762.5,715.9 764.5,716.8 766.6,717.5 768.6,718.2 770.6,718.7 772.7,719.1 774.7,719.5 776.7,719.8 778.8,719.9 780.8,720.0 782.8,720.0 784.8,719.9 786.9,719.7 788.9,719.5 790.9,719.2 793.0,718.8 795.0,718.3 797.0,717.8 799.1,717.2 801.1,716.5 803.1,715.8 805.2,715.1 807.2,714.3 809.2,713.4 811.2,712.6 813.3,711.6 815.3,710.7 817.3,709.7 819.4,708.7 821.4,707.6 823.4,706.6 825.5,705.5 827.5,704.4 829.5,703.3 831.6,702.2 833.6,701.1 835.6,700.0 837.7,698.9 839.7,697.8 841.7,696.7 843.8,695.6 845.8,694.5 847.8,693.5 849.8,692.4 851.9,691.4 853.9,690.4 855.9,689.4 858.0,688.5 860.0,687.6 862.0,686.7 864.1,685.8 866.1,685.0 868.1,684.2 870.2,683.4 872.2,682.7 874.2,682.0 876.2,681.4 878.3,680.8 880.3,680.2 882.3,679.6 884.4,679.1 886.4,678.7 888.4,678.3 890.5,677.9 892.5,677.5 894.5,677.2 896.6,677.0 898.6,676.8 900.6,676.6 902.7,676.4 904.7,676.3 906.7,676.2 908.8,676.2 910.8,676.2 912.8,676.2 914.8,676.2 916.9,676.3 918.9,676.4 920.9,676.6 923.0,676.7 925.0,676.9 927.0,677.2 929.1,677.4 931.1,677.7 933.1,677.9 935.2,678.2 937.2,678.5 939.2,678.9 941.2,679.2 943.3,679.6 945.3,680.0 947.3,680.3 949.4,680.7 951.4,681.1 953.4,681.5 955.5,681.9 957.5,682.3 959.5,682.7 961.6,683.1 963.6,683.5 965.6,683.9 967.7,684.3 969.7,684.7 971.7,685.1 973.8,685.5 975.8,685.9 977.8,686.2 979.8,686.6 981.9,686.9 983.9,687.3 985.9,687.6 988.0,687.9 990.0,688.2 992.0,688.5 994.1,688.8 996.1,689.0 998.1,689.2 1000.2,689.5 1002.2,689.7 1004.2,689.9 1006.2,690.1 1008.3,690.2 1010.3,690.4 1012.3,690.5 1014.4,690.6 1016.4,690.7 1018.4,690.8 1020.5,690.9 1022.5,690.9 1024.5,690.9 1026.6,691.0 1028.6,691.0 1030.6,691.0 1032.7,691.0 1034.7,690.9 1036.7,690.9 1038.8,690.8 1040.8,690.8 1042.8,690.7 1044.8,690.6 1046.9,690.5 1048.9,690.4 1050.9,690.3 1053.0,690.2 1055.0,690.0 1057.0,689.9 1059.1,689.8 1061.1,689.6 1063.1,689.5 1065.2,689.3 1067.2,689.2 1069.2,689.0 1071.2,688.9 1073.3,688.7 1075.3,688.5 1077.3,688.4 1079.4,688.2 1081.4,688.1 1083.4,687.9 1085.5,687.7 1087.5,687.6 1089.5,687.4 1091.6,687.3 1093.6,687.1 1095.6,687.0 1097.7,686.9 1099.7,686.7 1101.7,686.6 1103.8,686.5 1105.8,686.4 1107.8,686.3 1109.8,686.2 1111.9,686.1 1113.9,686.0 1115.9,685.9 1118.0,685.8 1120.0,685.8" fill="none" stroke="#c084fc" stroke-width="4" stroke-linejoin="round" stroke-linecap="round"/>
<circle cx="210.0" cy="688.2" r="4.5" fill="#cbd5e1" opacity="0.95"/>
<circle cx="340.0" cy="687.6" r="4.5" fill="#cbd5e1" opacity="0.95"/>
<circle cx="470.0" cy="687.7" r="4.5" fill="#cbd5e1" opacity="0.95"/>
<circle cx="600.0" cy="500.0" r="6.0" fill="#f8fafc" opacity="0.95"/>
<circle cx="730.0" cy="687.7" r="4.5" fill="#cbd5e1" opacity="0.95"/>
<circle cx="860.0" cy="687.6" r="4.5" fill="#cbd5e1" opacity="0.95"/>
<circle cx="990.0" cy="688.2" r="4.5" fill="#cbd5e1" opacity="0.95"/>
<text x="80.0" y="770.0" class="small" text-anchor="start">Neighboring symbol instants land near zero. The center sample gets the clean decision peak.</text>
<text x="860.0" y="530.0" class="small" text-anchor="start">matched response</text>
<circle cx="840.0" cy="525.0" r="6.0" fill="#c084fc" opacity="1.0"/>
</svg>
