<svg xmlns="http://www.w3.org/2000/svg" width="2140" height="1700" viewBox="0 0 2140 1700">
<style>
svg { background: #07111f; font-family: -apple-system, BlinkMacSystemFont, "Segoe UI", sans-serif; }
.title { fill: #e2e8f0; font-size: 34px; font-weight: 700; }
.subtitle { fill: #94a3b8; font-size: 18px; }
.label { fill: #e2e8f0; font-size: 22px; font-weight: 600; }
.small { fill: #cbd5e1; font-size: 17px; }
.tiny { fill: #cbd5e1; font-size: 15px; }
.cell { font-size: 14px; font-weight: 600; }
</style>
<text x="56.0" y="60.0" class="title" text-anchor="start">Band-edge settle shelf: track-ready returns before the residual gap closes</text>
<text x="56.0" y="92.0" class="subtitle" text-anchor="start">A spacing-by-gain audit around 1.20–1.30 R_s. The half-sine lane can re-enter the settle band while the residual ratio keeps widening.</text>
<rect x="56.0" y="126.0" width="2028.0" height="244.0" rx="18.0" fill="#102031" stroke="#4f8cc9" stroke-width="2.0"/>
<text x="82.0" y="162.0" class="small" text-anchor="start"><tspan x="82.0" dy="0">Same SRRC QPSK setup, same 63-tap band-edge filters, same 96-symbol loop update, same 0 dB adjacent interferer. Only spacing and loop gain move. The question is whether “track-ready again” already means competitive</tspan><tspan x="82.0" dy="22.0">again, or only opens a longer settle shelf where the half-sine lane is calmer but still far behind.</tspan></text>
<rect x="82.0" y="236.0" width="596.0" height="108.0" rx="16.0" fill="#163125" stroke="#4ade80" stroke-width="1.8"/>
<text x="100.0" y="264.0" class="label" text-anchor="start">Low gain reopens the whole nearby band</text>
<text x="100.0" y="292.0" class="tiny" text-anchor="start"><tspan x="100.0" dy="0">At gain 0.002, every tested spacing from 1.20 to 1.30 R_s keeps the</tspan><tspan x="100.0" dy="18.0">half-sine tail at 100% inside ±0.05 R_s.</tspan></text>
<rect x="744.0" y="236.0" width="596.0" height="108.0" rx="16.0" fill="#14263a" stroke="#93c5fd" stroke-width="1.8"/>
<text x="762.0" y="264.0" class="label" text-anchor="start">Baseline full-settle returns near 1.24 R_s</text>
<text x="762.0" y="292.0" class="tiny" text-anchor="start"><tspan x="762.0" dy="0">At gain 0.020, the first tested spacing with a full half-sine settle</tspan><tspan x="762.0" dy="18.0">band is 1.24 R_s. The proxy lane stays at 100% for every tested spacing</tspan><tspan x="762.0" dy="18.0">and gain.</tspan></text>
<rect x="1406.0" y="236.0" width="596.0" height="108.0" rx="16.0" fill="#341727" stroke="#fda4af" stroke-width="1.8"/>
<text x="1424.0" y="264.0" class="label" text-anchor="start">But the residual gulf widens inside that same shelf</text>
<text x="1424.0" y="292.0" class="tiny" text-anchor="start"><tspan x="1424.0" dy="0">At gain 0.020, the half-sine / proxy mean-residual ratio climbs from</tspan><tspan x="1424.0" dy="18.0">9.7x at 1.20 R_s to 15.8x at 1.24 R_s and 49.9x at 1.30 R_s.</tspan></text>
<rect x="56.0" y="406.0" width="980.0" height="568.0" rx="18.0" fill="#102031" stroke="#4f8cc9" stroke-width="2.0"/>
<text x="80.0" y="442.0" class="label" text-anchor="start">Half-sine settle fraction</text>
<text x="80.0" y="474.0" class="small" text-anchor="start"><tspan x="80.0" dy="0">Each cell shows how much of the last eight loop blocks stay inside ±0.05 R_s. This is the</tspan><tspan x="80.0" dy="22.0">“track-ready again” metric, not the residual ranking.</tspan></text>
<text x="239.0" y="546.0" class="tiny" text-anchor="middle">1.20</text>
<text x="349.0" y="546.0" class="tiny" text-anchor="middle">1.22</text>
<text x="459.0" y="546.0" class="tiny" text-anchor="middle">1.24</text>
<text x="569.0" y="546.0" class="tiny" text-anchor="middle">1.26</text>
<text x="679.0" y="546.0" class="tiny" text-anchor="middle">1.28</text>
<text x="789.0" y="546.0" class="tiny" text-anchor="middle">1.30</text>
<text x="514.0" y="514.0" class="tiny" text-anchor="middle">channel spacing (R_s)</text>
<text x="166.0" y="601.0" class="tiny" text-anchor="end">0.002</text>
<rect x="184.0" y="570.0" width="102.0" height="44.0" rx="10.0" fill="#16a34a"/>
<text x="235.0" y="601.0" class="cell" text-anchor="middle" fill="#f8fafc">1.000</text>
<rect x="294.0" y="570.0" width="102.0" height="44.0" rx="10.0" fill="#16a34a"/>
<text x="345.0" y="601.0" class="cell" text-anchor="middle" fill="#f8fafc">1.000</text>
<rect x="404.0" y="570.0" width="102.0" height="44.0" rx="10.0" fill="#16a34a"/>
<text x="455.0" y="601.0" class="cell" text-anchor="middle" fill="#f8fafc">1.000</text>
<rect x="514.0" y="570.0" width="102.0" height="44.0" rx="10.0" fill="#16a34a"/>
<text x="565.0" y="601.0" class="cell" text-anchor="middle" fill="#f8fafc">1.000</text>
<rect x="624.0" y="570.0" width="102.0" height="44.0" rx="10.0" fill="#16a34a"/>
<text x="675.0" y="601.0" class="cell" text-anchor="middle" fill="#f8fafc">1.000</text>
<rect x="734.0" y="570.0" width="102.0" height="44.0" rx="10.0" fill="#16a34a"/>
<text x="785.0" y="601.0" class="cell" text-anchor="middle" fill="#f8fafc">1.000</text>
<text x="166.0" y="653.0" class="tiny" text-anchor="end">0.006</text>
<rect x="184.0" y="622.0" width="102.0" height="44.0" rx="10.0" fill="#16a34a"/>
<text x="235.0" y="653.0" class="cell" text-anchor="middle" fill="#f8fafc">1.000</text>
<rect x="294.0" y="622.0" width="102.0" height="44.0" rx="10.0" fill="#16a34a"/>
<text x="345.0" y="653.0" class="cell" text-anchor="middle" fill="#f8fafc">1.000</text>
<rect x="404.0" y="622.0" width="102.0" height="44.0" rx="10.0" fill="#16a34a"/>
<text x="455.0" y="653.0" class="cell" text-anchor="middle" fill="#f8fafc">1.000</text>
<rect x="514.0" y="622.0" width="102.0" height="44.0" rx="10.0" fill="#16a34a"/>
<text x="565.0" y="653.0" class="cell" text-anchor="middle" fill="#f8fafc">1.000</text>
<rect x="624.0" y="622.0" width="102.0" height="44.0" rx="10.0" fill="#16a34a"/>
<text x="675.0" y="653.0" class="cell" text-anchor="middle" fill="#f8fafc">1.000</text>
<rect x="734.0" y="622.0" width="102.0" height="44.0" rx="10.0" fill="#16a34a"/>
<text x="785.0" y="653.0" class="cell" text-anchor="middle" fill="#f8fafc">1.000</text>
<text x="166.0" y="705.0" class="tiny" text-anchor="end">0.010</text>
<rect x="184.0" y="674.0" width="102.0" height="44.0" rx="10.0" fill="#16a34a"/>
<text x="235.0" y="705.0" class="cell" text-anchor="middle" fill="#f8fafc">1.000</text>
<rect x="294.0" y="674.0" width="102.0" height="44.0" rx="10.0" fill="#16a34a"/>
<text x="345.0" y="705.0" class="cell" text-anchor="middle" fill="#f8fafc">1.000</text>
<rect x="404.0" y="674.0" width="102.0" height="44.0" rx="10.0" fill="#16a34a"/>
<text x="455.0" y="705.0" class="cell" text-anchor="middle" fill="#f8fafc">1.000</text>
<rect x="514.0" y="674.0" width="102.0" height="44.0" rx="10.0" fill="#16a34a"/>
<text x="565.0" y="705.0" class="cell" text-anchor="middle" fill="#f8fafc">1.000</text>
<rect x="624.0" y="674.0" width="102.0" height="44.0" rx="10.0" fill="#16a34a"/>
<text x="675.0" y="705.0" class="cell" text-anchor="middle" fill="#f8fafc">1.000</text>
<rect x="734.0" y="674.0" width="102.0" height="44.0" rx="10.0" fill="#16a34a"/>
<text x="785.0" y="705.0" class="cell" text-anchor="middle" fill="#f8fafc">1.000</text>
<text x="166.0" y="757.0" class="tiny" text-anchor="end">0.014</text>
<rect x="184.0" y="726.0" width="102.0" height="44.0" rx="10.0" fill="#16a34a"/>
<text x="235.0" y="757.0" class="cell" text-anchor="middle" fill="#f8fafc">1.000</text>
<rect x="294.0" y="726.0" width="102.0" height="44.0" rx="10.0" fill="#16a34a"/>
<text x="345.0" y="757.0" class="cell" text-anchor="middle" fill="#f8fafc">1.000</text>
<rect x="404.0" y="726.0" width="102.0" height="44.0" rx="10.0" fill="#16a34a"/>
<text x="455.0" y="757.0" class="cell" text-anchor="middle" fill="#f8fafc">1.000</text>
<rect x="514.0" y="726.0" width="102.0" height="44.0" rx="10.0" fill="#16a34a"/>
<text x="565.0" y="757.0" class="cell" text-anchor="middle" fill="#f8fafc">1.000</text>
<rect x="624.0" y="726.0" width="102.0" height="44.0" rx="10.0" fill="#16a34a"/>
<text x="675.0" y="757.0" class="cell" text-anchor="middle" fill="#f8fafc">1.000</text>
<rect x="734.0" y="726.0" width="102.0" height="44.0" rx="10.0" fill="#16a34a"/>
<text x="785.0" y="757.0" class="cell" text-anchor="middle" fill="#f8fafc">1.000</text>
<text x="166.0" y="809.0" class="tiny" text-anchor="end">0.018</text>
<rect x="184.0" y="778.0" width="102.0" height="44.0" rx="10.0" fill="#ab4d16"/>
<text x="235.0" y="809.0" class="cell" text-anchor="middle" fill="#ecfeff">0.375</text>
<rect x="294.0" y="778.0" width="102.0" height="44.0" rx="10.0" fill="#e68e0d"/>
<text x="345.0" y="809.0" class="cell" text-anchor="middle" fill="#f8fafc">0.875</text>
<rect x="404.0" y="778.0" width="102.0" height="44.0" rx="10.0" fill="#16a34a"/>
<text x="455.0" y="809.0" class="cell" text-anchor="middle" fill="#f8fafc">1.000</text>
<rect x="514.0" y="778.0" width="102.0" height="44.0" rx="10.0" fill="#16a34a"/>
<text x="565.0" y="809.0" class="cell" text-anchor="middle" fill="#f8fafc">1.000</text>
<rect x="624.0" y="778.0" width="102.0" height="44.0" rx="10.0" fill="#16a34a"/>
<text x="675.0" y="809.0" class="cell" text-anchor="middle" fill="#f8fafc">1.000</text>
<rect x="734.0" y="778.0" width="102.0" height="44.0" rx="10.0" fill="#16a34a"/>
<text x="785.0" y="809.0" class="cell" text-anchor="middle" fill="#f8fafc">1.000</text>
<text x="166.0" y="861.0" class="tiny" text-anchor="end">0.020</text>
<rect x="184.0" y="830.0" width="102.0" height="44.0" rx="10.0" fill="#7f1d1d"/>
<text x="235.0" y="861.0" class="cell" text-anchor="middle" fill="#ecfeff">0.000</text>
<rect x="294.0" y="830.0" width="102.0" height="44.0" rx="10.0" fill="#ab4d16"/>
<text x="345.0" y="861.0" class="cell" text-anchor="middle" fill="#ecfeff">0.375</text>
<rect x="404.0" y="830.0" width="102.0" height="44.0" rx="10.0" fill="#16a34a"/>
<text x="455.0" y="861.0" class="cell" text-anchor="middle" fill="#f8fafc">1.000</text>
<rect x="514.0" y="830.0" width="102.0" height="44.0" rx="10.0" fill="#16a34a"/>
<text x="565.0" y="861.0" class="cell" text-anchor="middle" fill="#f8fafc">1.000</text>
<rect x="624.0" y="830.0" width="102.0" height="44.0" rx="10.0" fill="#16a34a"/>
<text x="675.0" y="861.0" class="cell" text-anchor="middle" fill="#f8fafc">1.000</text>
<rect x="734.0" y="830.0" width="102.0" height="44.0" rx="10.0" fill="#16a34a"/>
<text x="785.0" y="861.0" class="cell" text-anchor="middle" fill="#f8fafc">1.000</text>
<text x="166.0" y="913.0" class="tiny" text-anchor="end">0.022</text>
<rect x="184.0" y="882.0" width="102.0" height="44.0" rx="10.0" fill="#7f1d1d"/>
<text x="235.0" y="913.0" class="cell" text-anchor="middle" fill="#ecfeff">0.000</text>
<rect x="294.0" y="882.0" width="102.0" height="44.0" rx="10.0" fill="#8e2d1b"/>
<text x="345.0" y="913.0" class="cell" text-anchor="middle" fill="#ecfeff">0.125</text>
<rect x="404.0" y="882.0" width="102.0" height="44.0" rx="10.0" fill="#c96e12"/>
<text x="455.0" y="913.0" class="cell" text-anchor="middle" fill="#ecfeff">0.625</text>
<rect x="514.0" y="882.0" width="102.0" height="44.0" rx="10.0" fill="#16a34a"/>
<text x="565.0" y="913.0" class="cell" text-anchor="middle" fill="#f8fafc">1.000</text>
<rect x="624.0" y="882.0" width="102.0" height="44.0" rx="10.0" fill="#16a34a"/>
<text x="675.0" y="913.0" class="cell" text-anchor="middle" fill="#f8fafc">1.000</text>
<rect x="734.0" y="882.0" width="102.0" height="44.0" rx="10.0" fill="#16a34a"/>
<text x="785.0" y="913.0" class="cell" text-anchor="middle" fill="#f8fafc">1.000</text>
<text x="150.0" y="514.0" class="tiny" text-anchor="end">loop gain</text>
<rect x="80.0" y="904.0" width="928.0" height="44.0" rx="10.0" fill="#13263b" stroke="#4f8cc9" stroke-width="1.2"/>
<text x="100.0" y="932.0" class="tiny" text-anchor="start">Read:</text>
<text x="148.0" y="932.0" class="tiny" text-anchor="start">the settle shelf opens near 1.24 R_s at the default gain, but lower gain pushes full-settle behavior back toward 1.20 R_s.</text>
<rect x="1104.0" y="406.0" width="980.0" height="568.0" rx="18.0" fill="#102031" stroke="#4f8cc9" stroke-width="2.0"/>
<text x="1128.0" y="442.0" class="label" text-anchor="start">Residual ratio: half-sine / proxy</text>
<text x="1128.0" y="474.0" class="small" text-anchor="start"><tspan x="1128.0" dy="0">This is the mean tail residual CFO ratio. Bigger means the half-sine lane is still farther from</tspan><tspan x="1128.0" dy="22.0">calm lock than the proxy lane, even when both are already inside the settle band.</tspan></text>
<text x="1287.0" y="546.0" class="tiny" text-anchor="middle">1.20</text>
<text x="1397.0" y="546.0" class="tiny" text-anchor="middle">1.22</text>
<text x="1507.0" y="546.0" class="tiny" text-anchor="middle">1.24</text>
<text x="1617.0" y="546.0" class="tiny" text-anchor="middle">1.26</text>
<text x="1727.0" y="546.0" class="tiny" text-anchor="middle">1.28</text>
<text x="1837.0" y="546.0" class="tiny" text-anchor="middle">1.30</text>
<text x="1562.0" y="514.0" class="tiny" text-anchor="middle">channel spacing (R_s)</text>
<text x="1214.0" y="601.0" class="tiny" text-anchor="end">0.002</text>
<rect x="1232.0" y="570.0" width="102.0" height="44.0" rx="10.0" fill="#1e293b"/>
<text x="1283.0" y="601.0" class="cell" text-anchor="middle" fill="#e2e8f0">9.4x</text>
<rect x="1342.0" y="570.0" width="102.0" height="44.0" rx="10.0" fill="#2b2b41"/>
<text x="1393.0" y="601.0" class="cell" text-anchor="middle" fill="#e2e8f0">11.9x</text>
<rect x="1452.0" y="570.0" width="102.0" height="44.0" rx="10.0" fill="#3b2d48"/>
<text x="1503.0" y="601.0" class="cell" text-anchor="middle" fill="#e2e8f0">15.2x</text>
<rect x="1562.0" y="570.0" width="102.0" height="44.0" rx="10.0" fill="#5f3359"/>
<text x="1613.0" y="601.0" class="cell" text-anchor="middle" fill="#e2e8f0">22.4x</text>
<rect x="1672.0" y="570.0" width="102.0" height="44.0" rx="10.0" fill="#9c3c74"/>
<text x="1723.0" y="601.0" class="cell" text-anchor="middle" fill="#f8fafc">34.3x</text>
<rect x="1782.0" y="570.0" width="102.0" height="44.0" rx="10.0" fill="#de4692"/>
<text x="1833.0" y="601.0" class="cell" text-anchor="middle" fill="#f8fafc">47.3x</text>
<text x="1214.0" y="653.0" class="tiny" text-anchor="end">0.006</text>
<rect x="1232.0" y="622.0" width="102.0" height="44.0" rx="10.0" fill="#1e293b"/>
<text x="1283.0" y="653.0" class="cell" text-anchor="middle" fill="#e2e8f0">9.5x</text>
<rect x="1342.0" y="622.0" width="102.0" height="44.0" rx="10.0" fill="#2b2b41"/>
<text x="1393.0" y="653.0" class="cell" text-anchor="middle" fill="#e2e8f0">12.0x</text>
<rect x="1452.0" y="622.0" width="102.0" height="44.0" rx="10.0" fill="#3c2d49"/>
<text x="1503.0" y="653.0" class="cell" text-anchor="middle" fill="#e2e8f0">15.3x</text>
<rect x="1562.0" y="622.0" width="102.0" height="44.0" rx="10.0" fill="#613359"/>
<text x="1613.0" y="653.0" class="cell" text-anchor="middle" fill="#e2e8f0">22.6x</text>
<rect x="1672.0" y="622.0" width="102.0" height="44.0" rx="10.0" fill="#9d3c75"/>
<text x="1723.0" y="653.0" class="cell" text-anchor="middle" fill="#f8fafc">34.6x</text>
<rect x="1782.0" y="622.0" width="102.0" height="44.0" rx="10.0" fill="#e04694"/>
<text x="1833.0" y="653.0" class="cell" text-anchor="middle" fill="#f8fafc">47.8x</text>
<text x="1214.0" y="705.0" class="tiny" text-anchor="end">0.010</text>
<rect x="1232.0" y="674.0" width="102.0" height="44.0" rx="10.0" fill="#1f293b"/>
<text x="1283.0" y="705.0" class="cell" text-anchor="middle" fill="#e2e8f0">9.5x</text>
<rect x="1342.0" y="674.0" width="102.0" height="44.0" rx="10.0" fill="#2c2b41"/>
<text x="1393.0" y="705.0" class="cell" text-anchor="middle" fill="#e2e8f0">12.2x</text>
<rect x="1452.0" y="674.0" width="102.0" height="44.0" rx="10.0" fill="#3d2e49"/>
<text x="1503.0" y="705.0" class="cell" text-anchor="middle" fill="#e2e8f0">15.5x</text>
<rect x="1562.0" y="674.0" width="102.0" height="44.0" rx="10.0" fill="#62335a"/>
<text x="1613.0" y="705.0" class="cell" text-anchor="middle" fill="#e2e8f0">22.8x</text>
<rect x="1672.0" y="674.0" width="102.0" height="44.0" rx="10.0" fill="#9f3c76"/>
<text x="1723.0" y="705.0" class="cell" text-anchor="middle" fill="#f8fafc">35.0x</text>
<rect x="1782.0" y="674.0" width="102.0" height="44.0" rx="10.0" fill="#e34795"/>
<text x="1833.0" y="705.0" class="cell" text-anchor="middle" fill="#f8fafc">48.4x</text>
<text x="1214.0" y="757.0" class="tiny" text-anchor="end">0.014</text>
<rect x="1232.0" y="726.0" width="102.0" height="44.0" rx="10.0" fill="#1f293b"/>
<text x="1283.0" y="757.0" class="cell" text-anchor="middle" fill="#e2e8f0">9.6x</text>
<rect x="1342.0" y="726.0" width="102.0" height="44.0" rx="10.0" fill="#2d2b42"/>
<text x="1393.0" y="757.0" class="cell" text-anchor="middle" fill="#e2e8f0">12.3x</text>
<rect x="1452.0" y="726.0" width="102.0" height="44.0" rx="10.0" fill="#3d2e49"/>
<text x="1503.0" y="757.0" class="cell" text-anchor="middle" fill="#e2e8f0">15.6x</text>
<rect x="1562.0" y="726.0" width="102.0" height="44.0" rx="10.0" fill="#63335b"/>
<text x="1613.0" y="757.0" class="cell" text-anchor="middle" fill="#e2e8f0">23.1x</text>
<rect x="1672.0" y="726.0" width="102.0" height="44.0" rx="10.0" fill="#a13d77"/>
<text x="1723.0" y="757.0" class="cell" text-anchor="middle" fill="#f8fafc">35.4x</text>
<rect x="1782.0" y="726.0" width="102.0" height="44.0" rx="10.0" fill="#e64796"/>
<text x="1833.0" y="757.0" class="cell" text-anchor="middle" fill="#f8fafc">49.0x</text>
<text x="1214.0" y="809.0" class="tiny" text-anchor="end">0.018</text>
<rect x="1232.0" y="778.0" width="102.0" height="44.0" rx="10.0" fill="#1f293c"/>
<text x="1283.0" y="809.0" class="cell" text-anchor="middle" fill="#e2e8f0">9.7x</text>
<rect x="1342.0" y="778.0" width="102.0" height="44.0" rx="10.0" fill="#2d2b42"/>
<text x="1393.0" y="809.0" class="cell" text-anchor="middle" fill="#e2e8f0">12.4x</text>
<rect x="1452.0" y="778.0" width="102.0" height="44.0" rx="10.0" fill="#3e2e4a"/>
<text x="1503.0" y="809.0" class="cell" text-anchor="middle" fill="#e2e8f0">15.7x</text>
<rect x="1562.0" y="778.0" width="102.0" height="44.0" rx="10.0" fill="#65345b"/>
<text x="1613.0" y="809.0" class="cell" text-anchor="middle" fill="#e2e8f0">23.4x</text>
<rect x="1672.0" y="778.0" width="102.0" height="44.0" rx="10.0" fill="#a43d78"/>
<text x="1723.0" y="809.0" class="cell" text-anchor="middle" fill="#f8fafc">35.8x</text>
<rect x="1782.0" y="778.0" width="102.0" height="44.0" rx="10.0" fill="#e94898"/>
<text x="1833.0" y="809.0" class="cell" text-anchor="middle" fill="#f8fafc">49.6x</text>
<text x="1214.0" y="861.0" class="tiny" text-anchor="end">0.020</text>
<rect x="1232.0" y="830.0" width="102.0" height="44.0" rx="10.0" fill="#1f293c"/>
<text x="1283.0" y="861.0" class="cell" text-anchor="middle" fill="#e2e8f0">9.7x</text>
<rect x="1342.0" y="830.0" width="102.0" height="44.0" rx="10.0" fill="#2e2b42"/>
<text x="1393.0" y="861.0" class="cell" text-anchor="middle" fill="#e2e8f0">12.5x</text>
<rect x="1452.0" y="830.0" width="102.0" height="44.0" rx="10.0" fill="#3e2e4a"/>
<text x="1503.0" y="861.0" class="cell" text-anchor="middle" fill="#e2e8f0">15.8x</text>
<rect x="1562.0" y="830.0" width="102.0" height="44.0" rx="10.0" fill="#65345c"/>
<text x="1613.0" y="861.0" class="cell" text-anchor="middle" fill="#e2e8f0">23.5x</text>
<rect x="1672.0" y="830.0" width="102.0" height="44.0" rx="10.0" fill="#a53d78"/>
<text x="1723.0" y="861.0" class="cell" text-anchor="middle" fill="#f8fafc">36.1x</text>
<rect x="1782.0" y="830.0" width="102.0" height="44.0" rx="10.0" fill="#ea4898"/>
<text x="1833.0" y="861.0" class="cell" text-anchor="middle" fill="#f8fafc">49.9x</text>
<text x="1214.0" y="913.0" class="tiny" text-anchor="end">0.022</text>
<rect x="1232.0" y="882.0" width="102.0" height="44.0" rx="10.0" fill="#20293c"/>
<text x="1283.0" y="913.0" class="cell" text-anchor="middle" fill="#e2e8f0">9.7x</text>
<rect x="1342.0" y="882.0" width="102.0" height="44.0" rx="10.0" fill="#2e2b42"/>
<text x="1393.0" y="913.0" class="cell" text-anchor="middle" fill="#e2e8f0">12.5x</text>
<rect x="1452.0" y="882.0" width="102.0" height="44.0" rx="10.0" fill="#3f2e4a"/>
<text x="1503.0" y="913.0" class="cell" text-anchor="middle" fill="#e2e8f0">15.9x</text>
<rect x="1562.0" y="882.0" width="102.0" height="44.0" rx="10.0" fill="#66345c"/>
<text x="1613.0" y="913.0" class="cell" text-anchor="middle" fill="#e2e8f0">23.6x</text>
<rect x="1672.0" y="882.0" width="102.0" height="44.0" rx="10.0" fill="#a63d79"/>
<text x="1723.0" y="913.0" class="cell" text-anchor="middle" fill="#f8fafc">36.3x</text>
<rect x="1782.0" y="882.0" width="102.0" height="44.0" rx="10.0" fill="#ec4899"/>
<text x="1833.0" y="913.0" class="cell" text-anchor="middle" fill="#f8fafc">50.2x</text>
<text x="1198.0" y="514.0" class="tiny" text-anchor="end">loop gain</text>
<rect x="1128.0" y="904.0" width="928.0" height="44.0" rx="10.0" fill="#13263b" stroke="#4f8cc9" stroke-width="1.2"/>
<text x="1148.0" y="932.0" class="tiny" text-anchor="start">Read:</text>
<text x="1196.0" y="932.0" class="tiny" text-anchor="start">inside 1.24–1.30 R_s the ratio keeps rising, so track-ready again is not the same thing as catching up.</text>
<rect x="56.0" y="1022.0" width="2028.0" height="542.0" rx="18.0" fill="#102031" stroke="#4f8cc9" stroke-width="2.0"/>
<text x="80.0" y="1058.0" class="label" text-anchor="start">Residual ratio versus spacing for three gains</text>
<text x="80.0" y="1090.0" class="small" text-anchor="start"><tspan x="80.0" dy="0">All three gain curves rise across the nearby spacing band. Lower gain rescues settle fraction earlier, but it does not bend the residual-ratio story back toward parity.</tspan></text>
<line x1="160.0" y1="1486.0" x2="2008.0" y2="1486.0" stroke="#5d7fa3" stroke-width="2.0" opacity="1.0" stroke-linecap="round"/>
<line x1="160.0" y1="1166.0" x2="160.0" y2="1486.0" stroke="#5d7fa3" stroke-width="2.0" opacity="1.0" stroke-linecap="round"/>
<line x1="160.0" y1="1480.0" x2="160.0" y2="1492.0" stroke="#5d7fa3" stroke-width="1.4" opacity="1.0" stroke-linecap="round"/>
<text x="160.0" y="1512.0" class="tiny" text-anchor="middle">1.20</text>
<line x1="529.6" y1="1480.0" x2="529.6" y2="1492.0" stroke="#5d7fa3" stroke-width="1.4" opacity="1.0" stroke-linecap="round"/>
<text x="529.6" y="1512.0" class="tiny" text-anchor="middle">1.22</text>
<line x1="899.2" y1="1480.0" x2="899.2" y2="1492.0" stroke="#5d7fa3" stroke-width="1.4" opacity="1.0" stroke-linecap="round"/>
<text x="899.2" y="1512.0" class="tiny" text-anchor="middle">1.24</text>
<line x1="1268.8" y1="1480.0" x2="1268.8" y2="1492.0" stroke="#5d7fa3" stroke-width="1.4" opacity="1.0" stroke-linecap="round"/>
<text x="1268.8" y="1512.0" class="tiny" text-anchor="middle">1.26</text>
<line x1="1638.4" y1="1480.0" x2="1638.4" y2="1492.0" stroke="#5d7fa3" stroke-width="1.4" opacity="1.0" stroke-linecap="round"/>
<text x="1638.4" y="1512.0" class="tiny" text-anchor="middle">1.28</text>
<line x1="2008.0" y1="1480.0" x2="2008.0" y2="1492.0" stroke="#5d7fa3" stroke-width="1.4" opacity="1.0" stroke-linecap="round"/>
<text x="2008.0" y="1512.0" class="tiny" text-anchor="middle">1.30</text>
<line x1="154.0" y1="1486.0" x2="166.0" y2="1486.0" stroke="#5d7fa3" stroke-width="1.4" opacity="1.0" stroke-linecap="round"/>
<text x="142.0" y="1491.0" class="tiny" text-anchor="end">0x</text>
<line x1="154.0" y1="1432.7" x2="166.0" y2="1432.7" stroke="#5d7fa3" stroke-width="1.4" opacity="1.0" stroke-linecap="round"/>
<text x="142.0" y="1437.7" class="tiny" text-anchor="end">10x</text>
<line x1="160.0" y1="1432.7" x2="2008.0" y2="1432.7" stroke="#27415a" stroke-width="1.0" opacity="0.9" stroke-linecap="round" stroke-dasharray="4 8"/>
<line x1="154.0" y1="1379.3" x2="166.0" y2="1379.3" stroke="#5d7fa3" stroke-width="1.4" opacity="1.0" stroke-linecap="round"/>
<text x="142.0" y="1384.3" class="tiny" text-anchor="end">20x</text>
<line x1="160.0" y1="1379.3" x2="2008.0" y2="1379.3" stroke="#27415a" stroke-width="1.0" opacity="0.9" stroke-linecap="round" stroke-dasharray="4 8"/>
<line x1="154.0" y1="1326.0" x2="166.0" y2="1326.0" stroke="#5d7fa3" stroke-width="1.4" opacity="1.0" stroke-linecap="round"/>
<text x="142.0" y="1331.0" class="tiny" text-anchor="end">30x</text>
<line x1="160.0" y1="1326.0" x2="2008.0" y2="1326.0" stroke="#27415a" stroke-width="1.0" opacity="0.9" stroke-linecap="round" stroke-dasharray="4 8"/>
<line x1="154.0" y1="1272.7" x2="166.0" y2="1272.7" stroke="#5d7fa3" stroke-width="1.4" opacity="1.0" stroke-linecap="round"/>
<text x="142.0" y="1277.7" class="tiny" text-anchor="end">40x</text>
<line x1="160.0" y1="1272.7" x2="2008.0" y2="1272.7" stroke="#27415a" stroke-width="1.0" opacity="0.9" stroke-linecap="round" stroke-dasharray="4 8"/>
<line x1="154.0" y1="1219.3" x2="166.0" y2="1219.3" stroke="#5d7fa3" stroke-width="1.4" opacity="1.0" stroke-linecap="round"/>
<text x="142.0" y="1224.3" class="tiny" text-anchor="end">50x</text>
<line x1="160.0" y1="1219.3" x2="2008.0" y2="1219.3" stroke="#27415a" stroke-width="1.0" opacity="0.9" stroke-linecap="round" stroke-dasharray="4 8"/>
<line x1="154.0" y1="1166.0" x2="166.0" y2="1166.0" stroke="#5d7fa3" stroke-width="1.4" opacity="1.0" stroke-linecap="round"/>
<text x="142.0" y="1171.0" class="tiny" text-anchor="end">60x</text>
<line x1="160.0" y1="1166.0" x2="2008.0" y2="1166.0" stroke="#27415a" stroke-width="1.0" opacity="0.9" stroke-linecap="round" stroke-dasharray="4 8"/>
<text x="1084.0" y="1544.0" class="tiny" text-anchor="middle">channel spacing (R_s)</text>
<text x="160.0" y="1152.0" class="tiny" text-anchor="start">mean residual ratio</text>
<polyline points="160.0,1435.8 529.6,1422.4 899.2,1405.0 1268.8,1366.8 1638.4,1303.3 2008.0,1233.6" fill="none" stroke="#4ade80" stroke-width="3.4" stroke-linecap="round" stroke-linejoin="round"/>
<circle cx="160.0" cy="1435.8" r="5.0" fill="#4ade80"/>
<circle cx="529.6" cy="1422.4" r="5.0" fill="#4ade80"/>
<circle cx="899.2" cy="1405.0" r="5.0" fill="#4ade80"/>
<circle cx="1268.8" cy="1366.8" r="5.0" fill="#4ade80"/>
<circle cx="1638.4" cy="1303.3" r="5.0" fill="#4ade80"/>
<circle cx="2008.0" cy="1233.6" r="5.0" fill="#4ade80"/>
<polyline points="160.0,1435.1 529.6,1421.1 899.2,1403.6 1268.8,1364.2 1638.4,1299.2 2008.0,1227.9" fill="none" stroke="#93c5fd" stroke-width="3.4" stroke-linecap="round" stroke-linejoin="round"/>
<circle cx="160.0" cy="1435.1" r="5.0" fill="#93c5fd"/>
<circle cx="529.6" cy="1421.1" r="5.0" fill="#93c5fd"/>
<circle cx="899.2" cy="1403.6" r="5.0" fill="#93c5fd"/>
<circle cx="1268.8" cy="1364.2" r="5.0" fill="#93c5fd"/>
<circle cx="1638.4" cy="1299.2" r="5.0" fill="#93c5fd"/>
<circle cx="2008.0" cy="1227.9" r="5.0" fill="#93c5fd"/>
<polyline points="160.0,1434.3 529.6,1419.4 899.2,1401.7 1268.8,1360.6 1638.4,1293.7 2008.0,1220.0" fill="none" stroke="#fda4af" stroke-width="3.4" stroke-linecap="round" stroke-linejoin="round"/>
<circle cx="160.0" cy="1434.3" r="5.0" fill="#fda4af"/>
<circle cx="529.6" cy="1419.4" r="5.0" fill="#fda4af"/>
<circle cx="899.2" cy="1401.7" r="5.0" fill="#fda4af"/>
<circle cx="1268.8" cy="1360.6" r="5.0" fill="#fda4af"/>
<circle cx="1638.4" cy="1293.7" r="5.0" fill="#fda4af"/>
<circle cx="2008.0" cy="1220.0" r="5.0" fill="#fda4af"/>
<rect x="1566.0" y="1106.0" width="444.0" height="120.0" rx="12.0" fill="#13263b" stroke="#4f8cc9" stroke-width="1.4"/>
<text x="1586.0" y="1134.0" class="label" text-anchor="start">gain slices</text>
<line x1="1588.0" y1="1164.0" x2="1646.0" y2="1164.0" stroke="#4ade80" stroke-width="3.0" opacity="1.0" stroke-linecap="round"/>
<circle cx="1617.0" cy="1164.0" r="4.6" fill="#4ade80"/>
<text x="1662.0" y="1168.0" class="tiny" text-anchor="start">loop gain 0.002</text>
<line x1="1588.0" y1="1190.0" x2="1646.0" y2="1190.0" stroke="#93c5fd" stroke-width="3.0" opacity="1.0" stroke-linecap="round"/>
<circle cx="1617.0" cy="1190.0" r="4.6" fill="#93c5fd"/>
<text x="1662.0" y="1194.0" class="tiny" text-anchor="start">loop gain 0.010</text>
<line x1="1588.0" y1="1216.0" x2="1646.0" y2="1216.0" stroke="#fda4af" stroke-width="3.0" opacity="1.0" stroke-linecap="round"/>
<circle cx="1617.0" cy="1216.0" r="4.6" fill="#fda4af"/>
<text x="1662.0" y="1220.0" class="tiny" text-anchor="start">loop gain 0.020</text>
<rect x="80.0" y="1492.0" width="1980.0" height="64.0" rx="12.0" fill="#13263b" stroke="#4f8cc9" stroke-width="1.2"/>
<text x="98.0" y="1520.0" class="tiny" text-anchor="start"><tspan x="98.0" dy="0">Sharper sentence: the first settle point opens a shelf, not a crossover ramp. Lower gain makes the half-sine lane track-ready earlier, but inside 1.20–1.30 R_s the proxy lane cools faster, so the residual gap widens before the much later crossover</tspan><tspan x="98.0" dy="18.0">from the previous spacing note.</tspan></text>
</svg>
